<svg xmlns="http://www.w3.org/2000/svg" viewBox="0 0 463.8 463.8"><defs><style>.cls-1{fill:#266e9c;}.cls-2{fill:#fff;}</style></defs><title>icon</title><g id="Calque_2" data-name="Calque 2"><g id="Calque_1-2" data-name="Calque 1"><circle class="cls-1" cx="231.9" cy="231.9" r="231.9"/><path class="cls-2" d="M300.85,128.7Q284.38,108.35,256.61,97T187.48,85.73q-43.95,0-80.1,5.81t-58.8,12.28v270.1a232.92,232.92,0,0,0,78.17,64.72V158.09c5.18-.86,13.13-2,23.91-3.23a260.6,260.6,0,0,1,31-2q20,0,33.91,5.5a46.52,46.52,0,0,1,22,17.44q8.09,12,11.64,31t3.55,46.19V462.86a230.5,230.5,0,0,0,78.17-21.2V240.77q0-34.23-6.78-63T300.85,128.7Z"/><path class="cls-2" d="M397.15,69.22q-8-8.13-16.8-15.47V307.69a8.4,8.4,0,1,0,16.8,0Z"/></g></g></svg>