<svg xmlns="http://www.w3.org/2000/svg" width="14.748" height="15.052" viewBox="0 0 14.748 15.052">
    <path id="Tracé_48" data-name="Tracé 48"
        d="M20.928,8.62A2.645,2.645,0,0,0,19.416,8.2a1.983,1.983,0,0,0-1.914.918h-.079a1.974,1.974,0,0,0-1.916-.925A2.638,2.638,0,0,0,14,8.615V13.05a2,2,0,0,1-4,0,.442.442,0,0,1,.883,0,1.119,1.119,0,0,0,2.237,0V8.623A2.639,2.639,0,0,0,11.6,8.2a1.983,1.983,0,0,0-1.914.918H9.607a1.974,1.974,0,0,0-1.916-.925,2.645,2.645,0,0,0-1.511.421c.288-3.144,3.247-5.644,6.932-5.83v-.33a.442.442,0,0,1,.883,0v.33C17.684,2.97,20.644,5.473,20.928,8.62ZM10.961.706a5.716,5.716,0,0,0-.991.849A.48.48,0,1,0,10.819,2,5.716,5.716,0,0,0,10.961.706ZM12.906,0a5.716,5.716,0,0,0-.991.849.48.48,0,0,0,.849.448A5.714,5.714,0,0,0,12.906,0ZM15.2,0a5.716,5.716,0,0,0-.991.849.48.48,0,0,0,.849.448A5.714,5.714,0,0,0,15.2,0Zm1.826.657a5.716,5.716,0,0,0-.991.849.48.48,0,0,0,.849.448A5.714,5.714,0,0,0,17.026.657Z"
        transform="translate(-6.18)" fill="#fff" />
</svg>