<svg id="Groupe_8" data-name="Groupe 8" xmlns="http://www.w3.org/2000/svg" width="19.178" height="12.872"
    viewBox="0 0 19.178 12.872">
    <g id="Groupe_1" data-name="Groupe 1" transform="translate(0.127 9.103)">
        <path id="Tracé_52" data-name="Tracé 52"
            d="M203.87,203.46h-1.841a.445.445,0,0,1,0-.889h1.841a.445.445,0,0,1,0,.889Z"
            transform="translate(-201.584 -202.571)" fill="#fff" />
    </g>
    <g id="Groupe_2" data-name="Groupe 2" transform="translate(4.081 3.851)">
        <path id="Tracé_53" data-name="Tracé 53"
            d="M243.765,167.236h-.889v-.445a4.888,4.888,0,0,0-1.089-3.055,4.41,4.41,0,0,0-3.407-1.625,4.668,4.668,0,0,0-3.694,1.576,5.21,5.21,0,0,0-1.078,3.1v.445h-.889v-.445a6.063,6.063,0,0,1,1.315-3.709,5.561,5.561,0,0,1,4.346-1.861,5.344,5.344,0,0,1,4.081,1.934,5.787,5.787,0,0,1,1.3,3.635Z"
            transform="translate(-232.719 -161.222)" fill="#fff" />
    </g>
    <g id="Groupe_3" data-name="Groupe 3" transform="translate(0 9.221)">
        <path id="Tracé_54" data-name="Tracé 54"
            d="M219.318,207.154h-5.83a.445.445,0,0,1-.285-.1l-3.008-2.518-2.89,2.513a.445.445,0,0,1-.292.109h-5.984a.445.445,0,1,1,0-.889h5.818l3.051-2.653a.444.444,0,0,1,.577-.005l3.175,2.658h5.669a.445.445,0,1,1,0,.889Z"
            transform="translate(-200.584 -203.503)" fill="#fff" />
    </g>
    <g id="Groupe_4" data-name="Groupe 4" transform="translate(16.448 9.103)">
        <path id="Tracé_55" data-name="Tracé 55"
            d="M332.374,203.46h-1.841a.445.445,0,0,1,0-.889h1.841a.445.445,0,0,1,0,.889Z"
            transform="translate(-330.088 -202.571)" fill="#fff" />
    </g>
    <g id="Groupe_5" data-name="Groupe 5" transform="translate(14.342 2.591)">
        <path id="Tracé_56" data-name="Tracé 56"
            d="M313.953,153.456a.445.445,0,0,1-.306-.768l1.338-1.265a.445.445,0,1,1,.611.646l-1.338,1.265A.443.443,0,0,1,313.953,153.456Z"
            transform="translate(-313.509 -151.301)" fill="#fff" />
    </g>
    <g id="Groupe_6" data-name="Groupe 6" transform="translate(2.724 2.591)">
        <path id="Tracé_57" data-name="Tracé 57"
            d="M223.744,153.528a.443.443,0,0,1-.323-.139l-1.265-1.338a.445.445,0,0,1,.646-.611l1.265,1.338a.444.444,0,0,1-.323.75Z"
            transform="translate(-222.034 -151.302)" fill="#fff" />
    </g>
    <g id="Groupe_7" data-name="Groupe 7" transform="translate(9.145)">
        <path id="Tracé_58" data-name="Tracé 58"
            d="M273.029,133.63a.445.445,0,0,1-.445-.445v-1.841a.445.445,0,0,1,.889,0v1.841A.445.445,0,0,1,273.029,133.63Z"
            transform="translate(-272.584 -130.9)" fill="#fff" />
    </g>
</svg>