<svg id="wind_1_" data-name="wind (1)" xmlns="http://www.w3.org/2000/svg" width="18.992" height="14.037"
    viewBox="0 0 18.992 14.037">
    <path id="Tracé_49" data-name="Tracé 49"
        d="M10.174,9.353H2.524v1.113h7.65a1.551,1.551,0,0,1,1.55,1.55,1.381,1.381,0,0,1-1.38,1.38A1.225,1.225,0,0,1,9.12,12.171H8.007a2.339,2.339,0,0,0,2.337,2.337,2.5,2.5,0,0,0,2.493-2.493A2.665,2.665,0,0,0,10.174,9.353Z"
        transform="translate(0.542 -0.471)" fill="#fff" />
    <path id="Tracé_50" data-name="Tracé 50"
        d="M15.221,2.04a3.516,3.516,0,0,0-3.512,3.512h1.113a2.4,2.4,0,0,1,2.4-2.4,2.662,2.662,0,0,1,2.659,2.659,2.944,2.944,0,0,1-2.94,2.94H0V9.864H14.939a4.058,4.058,0,0,0,4.053-4.053A3.776,3.776,0,0,0,15.221,2.04Z"
        transform="translate(0 -2.04)" fill="#fff" />
    <path id="Tracé_51" data-name="Tracé 51"
        d="M8.208,3.128A1.976,1.976,0,0,0,6.235,5.1H7.347a.862.862,0,0,1,.861-.861.986.986,0,0,1,.985.985,1.122,1.122,0,0,1-1.12,1.121H2.524V7.46H8.073a2.236,2.236,0,0,0,2.233-2.233A2.1,2.1,0,0,0,8.208,3.128Z"
        transform="translate(0.542 -1.806)" fill="#fff" />
</svg>