<svg
  xmlns="http://www.w3.org/2000/svg"
  width="40"
  height="40"
  viewBox="0 0 40 40"
>
  <g id="Bed-btn" transform="translate(0 0.156)">
    <g
      id="Rectangle_1055"
      data-name="Rectangle 1055"
      transform="translate(0 -0.156)"
      stroke="#374151"
      stroke-width="2"
    >
      <rect width="40" height="40" rx="10" stroke="none" />
      <rect x="1" y="1" width="38" height="38" rx="9" fill="none" />
    </g>
    <g id="double-bed" transform="translate(8 9.741)">
      <path
        id="XMLID_891_"
        d="M119.692,131.9a.212.212,0,0,0-.212.212v1.349h4.435V132.11a.212.212,0,0,0-.212-.212Z"
        transform="translate(-113.879 -127.456)"
        fill="#374151"
      />
      <path
        id="XMLID_890_"
        d="M298.117,131.9a.212.212,0,0,0-.212.212v1.349h4.435V132.11a.212.212,0,0,0-.212-.212h-4.011Z"
        transform="translate(-283.941 -127.456)"
        fill="#374151"
      />
      <path
        id="XMLID_889_"
        d="M53.1,43.13V41.795a1.634,1.634,0,0,1,1.632-1.632h4.011a1.634,1.634,0,0,1,1.632,1.632V43.13h1.088V41.795A1.634,1.634,0,0,1,63.1,40.162h4.011a1.634,1.634,0,0,1,1.632,1.632V43.13h1.13a3.227,3.227,0,0,1,.644.065V38.838a1.7,1.7,0,0,0-1.7-1.7H53.023a1.7,1.7,0,0,0-1.7,1.7v4.356a3.23,3.23,0,0,1,.644-.065Z"
        transform="translate(-48.92 -37.141)"
        fill="#374151"
      />
      <path
        id="XMLID_888_"
        d="M23.12,258.811H.88a.88.88,0,0,0-.88.88v5.768a.88.88,0,0,0,.88.88H23.12a.88.88,0,0,0,.88-.88v-5.768A.88.88,0,0,0,23.12,258.811Z"
        transform="translate(0 -248.42)"
        fill="#374151"
      />
      <path
        id="XMLID_887_"
        d="M46.6,195.206H28.7a1.806,1.806,0,0,0-1.789,1.561H48.384a1.806,1.806,0,0,0-1.789-1.561Z"
        transform="translate(-25.646 -187.797)"
        fill="#374151"
      />
      <path
        id="XMLID_886_"
        d="M18.762,449.7v.469a.71.71,0,0,0,1.42,0V449.7h-1.42Z"
        transform="translate(-17.883 -430.362)"
        fill="#374151"
      />
      <path
        id="XMLID_885_"
        d="M462.938,449.7v.469a.71.71,0,0,0,1.42,0V449.7h-1.42Z"
        transform="translate(-441.238 -430.361)"
        fill="#374151"
      />
    </g>
  </g>
</svg>
