<svg
  xmlns="http://www.w3.org/2000/svg"
  width="35"
  height="35"
  viewBox="0 0 35 35"
>
  <g id="Groupe_26" data-name="Groupe 26" transform="translate(-677.648 -389)">
    <rect
      id="Rectangle_1067"
      data-name="Rectangle 1067"
      width="35"
      height="35"
      rx="10"
      transform="translate(677.648 389)"
    />
    <g
      id="Groupe_24"
      data-name="Groupe 24"
      transform="translate(685.148 396.278)"
    >
      <path
        id="Tracé_74"
        data-name="Tracé 74"
        d="M-743.762,472h-.359a.9.9,0,0,1-.566-.927c-.019-.9-.079-1.792-.123-2.688-.01-.2-.013-.4-.033-.6a.885.885,0,0,0-.088-.223l-.1.225a.06.06,0,0,0,0,.02c-.056,1.095-.127,2.189-.162,3.284a.89.89,0,0,1-.566.906h-.359a.836.836,0,0,1-.551-.774c-.024-.665-.056-1.329-.088-1.994-.026-.55-.058-1.1-.089-1.669-.3,0-.592,0-.883,0a.431.431,0,0,1-.45-.556c.28-1.262.555-2.526.846-3.786a7.674,7.674,0,0,0,.306-2.674c-.006-.047-.01-.1-.018-.176a1.078,1.078,0,0,0-.059.1c-.028.068-.054.136-.079.2a9.277,9.277,0,0,0-.5,2.511.578.578,0,0,1-.362.572,2.771,2.771,0,0,0-.671.371,1.969,1.969,0,0,1-1.09.291,7.914,7.914,0,0,0,.012,1.324c.167.96.4,1.908.607,2.861.055.253-.04.377-.3.388-.137.006-.275,0-.42,0-.005.056-.01.087-.011.12-.04.75-.084,1.5-.119,2.251a.654.654,0,0,1-.317.637h-.28a.568.568,0,0,1-.279-.451c-.009-.332-.024-.664-.041-1-.025-.5-.053-1.006-.08-1.51a.209.209,0,0,0-.045.127c-.041.717-.084,1.433-.12,2.15-.014.272-.035.533-.314.679h-.28a.579.579,0,0,1-.282-.469c-.02-.632-.052-1.263-.082-1.894-.01-.211-.029-.421-.045-.646-.167,0-.32.01-.471,0a.264.264,0,0,1-.264-.355c.161-.732.306-1.468.5-2.192a6.449,6.449,0,0,0,.163-2.017.681.681,0,0,0-.083-.011,1.956,1.956,0,0,1-1.356-.537,1.329,1.329,0,0,0-.3-.26.752.752,0,0,1-.431-.814,8.492,8.492,0,0,0-.411-3.1c-.053-.144-.116-.285-.174-.428l-.049.015c.016.143.032.286.05.429.116.956.224,1.913.35,2.868a2.36,2.36,0,0,1-.152,1.462,2.735,2.735,0,0,0-.24,1.291c0,.067,0,.133-.007.2-.089,1.86-.187,3.72-.26,5.581a.868.868,0,0,1-.567.883h-.359a.844.844,0,0,1-.559-.79c-.051-1.274-.11-2.548-.167-3.822-.013-.29-.031-.579-.046-.869-.041.49-.058.981-.081,1.471-.047,1.029-.113,2.056-.139,3.085a.894.894,0,0,1-.566.925h-.359a.805.805,0,0,1-.556-.729c-.025-.5-.052-1-.076-1.494q-.121-2.571-.244-5.142a.6.6,0,0,0-.075-.26,2.229,2.229,0,0,1-.327-1.353c.089-.879.2-1.755.3-2.632.046-.391.093-.783.144-1.21a.578.578,0,0,0-.067.071c-.022.041-.043.082-.062.125a6.476,6.476,0,0,0-.514,2.259c-.029.477-.01.958-.034,1.435a.617.617,0,0,1-.623.579.644.644,0,0,1-.62-.571,10.687,10.687,0,0,1,.081-3.472,5.042,5.042,0,0,1,1.631-2.919,3.146,3.146,0,0,1,3.295-.614,3.852,3.852,0,0,1,1.976,1.753,6.179,6.179,0,0,1,.782,2.426,11.238,11.238,0,0,1-.044,2.883.158.158,0,0,0,.1.2,1.056,1.056,0,0,0,1.2-.069,1.345,1.345,0,0,1,1.772.017,1,1,0,0,0,1.056.109.208.208,0,0,0,.15-.235,10.323,10.323,0,0,1,.487-3.474,5.2,5.2,0,0,1,2.066-2.73,2.4,2.4,0,0,1,2.719-.1,4.418,4.418,0,0,1,1.684,1.713,8.668,8.668,0,0,1,.939,4.625.6.6,0,0,1-.618.581.658.658,0,0,1-.626-.629q-.136-.985-.31-1.964a8,8,0,0,0-.218-.777l-.071.014c0,.418-.016.838.006,1.255a4.367,4.367,0,0,0,.139.681q.5,2.293,1,4.586c.089.408-.089.627-.5.629h-.78a1.3,1.3,0,0,0-.022.132c-.056,1.116-.123,2.231-.161,3.348A.934.934,0,0,1-743.762,472Z"
        transform="translate(761.033 -451.559)"
        fill="#fff"
      />
      <path
        id="Tracé_75"
        data-name="Tracé 75"
        d="M-714.06,350.58a2.111,2.111,0,0,1,2.082-2.1,2.113,2.113,0,0,1,2.125,2.082,2.112,2.112,0,0,1-2.093,2.113A2.106,2.106,0,0,1-714.06,350.58Z"
        transform="translate(715.939 -348.477)"
        fill="#fff"
      />
      <path
        id="Tracé_76"
        data-name="Tracé 76"
        d="M-408.982,364.045a2.1,2.1,0,0,1,2.085,2.083,2.094,2.094,0,0,1-2.08,2.085,2.1,2.1,0,0,1-2.1-2.07A2.1,2.1,0,0,1-408.982,364.045Z"
        transform="translate(425.072 -363.422)"
        fill="#fff"
      />
      <path
        id="Tracé_77"
        data-name="Tracé 77"
        d="M-539.337,569.984a1.223,1.223,0,0,1-1.217,1.235,1.248,1.248,0,0,1-1.213-1.23,1.235,1.235,0,0,1,1.169-1.206A1.2,1.2,0,0,1-539.337,569.984Z"
        transform="translate(550.537 -559.971)"
        fill="#fff"
      />
    </g>
  </g>
</svg>
