<svg
  xmlns="http://www.w3.org/2000/svg"
  width="40"
  height="40"
  viewBox="0 0 40 40"
>
  <g id="Groupe_15" data-name="Groupe 15" transform="translate(-815 -236)">
    <g
      id="Rectangle_1054"
      data-name="Rectangle 1054"
      transform="translate(815 236)"
      stroke-width="1"
    >
      <rect width="40" height="40" rx="10" stroke="none" />
      <rect x="0.5" y="0.5" width="39" height="39" rx="9.5" fill="none" />
    </g>
    <g id="Groupe_14" data-name="Groupe 14" transform="translate(823.8 244)">
      <path
        id="Tracé_62"
        data-name="Tracé 62"
        d="M12,22.2a.488.488,0,0,1-.038-.254c.013-.068-.031-.125-.131-.169s-.15-.078-.15-.1-.072-.044-.216-.056L11.25,21.6H5.4a2.888,2.888,0,0,1-2.119-.881A2.889,2.889,0,0,1,2.4,18.6V5.4a2.888,2.888,0,0,1,.881-2.119A2.889,2.889,0,0,1,5.4,2.4h6a.566.566,0,0,0,.384-.122.623.623,0,0,0,.187-.366,3.155,3.155,0,0,0,.056-.44,4.665,4.665,0,0,0-.009-.5Q12,.675,12,.6a.577.577,0,0,0-.178-.422A.577.577,0,0,0,11.4,0h-6A5.2,5.2,0,0,0,1.584,1.584,5.2,5.2,0,0,0,0,5.4V18.6a5.2,5.2,0,0,0,1.584,3.815A5.2,5.2,0,0,0,5.4,24h6a.569.569,0,0,0,.384-.122.623.623,0,0,0,.187-.366,3.161,3.161,0,0,0,.056-.44,4.66,4.66,0,0,0-.009-.5Q12,22.275,12,22.2Z"
        transform="translate(22.019 24) rotate(180)"
        fill="#fff"
      />
      <path
        id="Tracé_63"
        data-name="Tracé 63"
        d="M124.036,57.206l-6.725-6.726a.791.791,0,0,0-1.348.556V54.6h-5.539a.8.8,0,0,0-.791.791v4.747a.8.8,0,0,0,.791.791h5.539v3.56a.787.787,0,0,0,1.348.556l6.725-6.725a.777.777,0,0,0,0-1.113Z"
        transform="translate(-109.633 -45.763)"
        fill="#fff"
      />
    </g>
  </g>
</svg>
