<svg
  xmlns="http://www.w3.org/2000/svg"
  width="40"
  height="40"
  viewBox="0 0 40 40"
>
  <g id="Groupe_16" data-name="Groupe 16" transform="translate(-870 -236)">
    <rect
      id="Rectangle_1055"
      data-name="Rectangle 1055"
      width="40"
      height="40"
      rx="10"
      transform="translate(870 236)"
    />
    <g id="edit" transform="translate(881.2 245)">
      <path
        id="Tracé_66"
        data-name="Tracé 66"
        d="M12.25,2h-1.1a2.756,2.756,0,0,0-5.3,0H4.75A.755.755,0,0,0,4,2.75v1.5A1.758,1.758,0,0,0,5.75,6h5.5A1.758,1.758,0,0,0,13,4.25V2.75A.755.755,0,0,0,12.25,2Z"
        transform="translate(0)"
        fill="#fff"
      />
      <path
        id="Tracé_67"
        data-name="Tracé 67"
        d="M14.25,3H14V4.25A2.748,2.748,0,0,1,11.25,7H5.75A2.748,2.748,0,0,1,3,4.25V3H2.75A2.748,2.748,0,0,0,0,5.75v12.5A2.748,2.748,0,0,0,2.75,21h7.38l.22-1.23a2.785,2.785,0,0,1,.76-1.47l.8-.8H3.75a.75.75,0,0,1,0-1.5h9.5a.34.34,0,0,1,.14.02h.01l3.6-3.6V5.75A2.748,2.748,0,0,0,14.25,3Zm-1,11.25H3.75a.75.75,0,0,1,0-1.5h9.5a.75.75,0,1,1,0,1.5Zm0-3.25H3.75a.75.75,0,1,1,0-1.5h9.5a.75.75,0,1,1,0,1.5Z"
        transform="translate(0 0)"
        fill="#fff"
      />
      <path
        id="Tracé_68"
        data-name="Tracé 68"
        d="M12.527,24a.75.75,0,0,1-.738-.881l.53-3.005a.753.753,0,0,1,.208-.4l7.425-7.424a1.526,1.526,0,0,1,2.3-.177l1.237,1.237a1.751,1.751,0,0,1,0,2.475L16.062,23.25a.739.739,0,0,1-.4.208l-3,.53a.715.715,0,0,1-.13.012Zm3.005-1.28h.01Z"
        transform="translate(0 0)"
        fill="#fff"
      />
    </g>
  </g>
</svg>
