<svg
  xmlns="http://www.w3.org/2000/svg"
  width="40"
  height="40"
  viewBox="0 0 40 40"
>
  <g id="Groupe_59" data-name="Groupe 59" transform="translate(-677.648 -389)">
    <rect
      id="Rectangle_1067"
      data-name="Rectangle 1067"
      width="40"
      height="40"
      rx="10"
      transform="translate(677.648 389)"
    />
    <g
      id="Groupe_24"
      data-name="Groupe 24"
      transform="translate(686.22 397.318)"
    >
      <path
        id="Tracé_74"
        data-name="Tracé 74"
        d="M-741.295,474.309h-.411a1.025,1.025,0,0,1-.647-1.059c-.022-1.024-.091-2.048-.14-3.072-.011-.227-.014-.456-.038-.682a1.011,1.011,0,0,0-.1-.255l-.111.257a.068.068,0,0,0,0,.023c-.064,1.251-.145,2.5-.185,3.753a1.018,1.018,0,0,1-.647,1.035h-.411a.955.955,0,0,1-.63-.885c-.028-.76-.064-1.519-.1-2.278-.03-.628-.066-1.256-.1-1.907-.344,0-.677,0-1.009,0a.492.492,0,0,1-.514-.635c.32-1.443.634-2.887.967-4.327a8.772,8.772,0,0,0,.35-3.055c-.007-.054-.011-.109-.021-.2a1.247,1.247,0,0,0-.068.114c-.032.077-.062.155-.09.233a10.6,10.6,0,0,0-.567,2.87.661.661,0,0,1-.414.653,3.167,3.167,0,0,0-.767.424,2.251,2.251,0,0,1-1.246.332,9.047,9.047,0,0,0,.014,1.513c.191,1.1.458,2.18.693,3.269.063.289-.046.431-.344.443-.157.006-.315,0-.48,0-.006.064-.011.1-.013.137-.046.858-.1,1.715-.135,2.573a.747.747,0,0,1-.362.728h-.32a.649.649,0,0,1-.319-.515c-.01-.38-.028-.759-.046-1.139-.028-.575-.06-1.15-.091-1.725a.238.238,0,0,0-.052.145c-.047.819-.1,1.638-.137,2.458-.016.31-.04.609-.359.776h-.32a.662.662,0,0,1-.322-.536c-.023-.722-.059-1.443-.094-2.164-.012-.241-.033-.481-.052-.739-.191,0-.365.011-.538,0a.3.3,0,0,1-.3-.406c.185-.836.349-1.678.566-2.506a7.369,7.369,0,0,0,.187-2.305.772.772,0,0,0-.1-.012,2.236,2.236,0,0,1-1.55-.613,1.517,1.517,0,0,0-.34-.3.86.86,0,0,1-.493-.93,9.706,9.706,0,0,0-.47-3.547c-.061-.165-.132-.326-.2-.489l-.056.018c.019.164.037.327.057.491.132,1.093.256,2.186.4,3.277a2.7,2.7,0,0,1-.174,1.671,3.126,3.126,0,0,0-.275,1.475c0,.076,0,.152-.008.228-.1,2.126-.214,4.252-.3,6.379a.992.992,0,0,1-.648,1.009h-.411a.965.965,0,0,1-.638-.9c-.059-1.456-.125-2.912-.191-4.368-.015-.331-.035-.662-.053-.993-.047.56-.067,1.121-.093,1.681-.054,1.175-.129,2.35-.159,3.526a1.021,1.021,0,0,1-.647,1.058h-.411a.92.92,0,0,1-.635-.833c-.028-.569-.06-1.138-.087-1.708q-.139-2.938-.279-5.877a.685.685,0,0,0-.086-.3,2.547,2.547,0,0,1-.374-1.546c.1-1,.228-2.006.344-3.008.052-.447.107-.894.165-1.383a.658.658,0,0,0-.076.081c-.026.046-.049.094-.071.143a7.4,7.4,0,0,0-.588,2.581c-.033.546-.011,1.094-.039,1.64a.7.7,0,0,1-.712.662.736.736,0,0,1-.708-.652,12.214,12.214,0,0,1,.092-3.968,5.763,5.763,0,0,1,1.864-3.336,3.6,3.6,0,0,1,3.765-.7,4.4,4.4,0,0,1,2.258,2,7.062,7.062,0,0,1,.894,2.773,12.844,12.844,0,0,1-.05,3.294.181.181,0,0,0,.11.228,1.207,1.207,0,0,0,1.371-.079,1.537,1.537,0,0,1,2.025.019,1.137,1.137,0,0,0,1.206.125.238.238,0,0,0,.172-.269,11.8,11.8,0,0,1,.557-3.97,5.948,5.948,0,0,1,2.361-3.12,2.746,2.746,0,0,1,3.107-.115,5.05,5.05,0,0,1,1.925,1.958,9.906,9.906,0,0,1,1.073,5.286.689.689,0,0,1-.706.664.752.752,0,0,1-.716-.719q-.155-1.125-.355-2.245a9.143,9.143,0,0,0-.249-.888l-.081.016c0,.478-.019.958.007,1.434a4.992,4.992,0,0,0,.159.778q.574,2.621,1.148,5.241c.1.467-.1.717-.576.719-.295,0-.589,0-.891,0a1.5,1.5,0,0,0-.025.151c-.064,1.275-.141,2.55-.184,3.826A1.067,1.067,0,0,1-741.295,474.309Z"
        transform="translate(761.033 -450.945)"
        fill="#fff"
      />
      <path
        id="Tracé_75"
        data-name="Tracé 75"
        d="M-714.06,350.881a2.412,2.412,0,0,1,2.38-2.4,2.414,2.414,0,0,1,2.428,2.38,2.414,2.414,0,0,1-2.392,2.415A2.406,2.406,0,0,1-714.06,350.881Z"
        transform="translate(716.207 -348.477)"
        fill="#fff"
      />
      <path
        id="Tracé_76"
        data-name="Tracé 76"
        d="M-408.683,364.045a2.4,2.4,0,0,1,2.383,2.38,2.393,2.393,0,0,1-2.378,2.383,2.4,2.4,0,0,1-2.4-2.366A2.4,2.4,0,0,1-408.683,364.045Z"
        transform="translate(427.072 -363.333)"
        fill="#fff"
      />
      <path
        id="Tracé_77"
        data-name="Tracé 77"
        d="M-538.99,570.156a1.4,1.4,0,0,1-1.39,1.412,1.426,1.426,0,0,1-1.386-1.406,1.411,1.411,0,0,1,1.336-1.378A1.369,1.369,0,0,1-538.99,570.156Z"
        transform="translate(551.79 -558.712)"
        fill="#fff"
      />
    </g>
  </g>
</svg>
