<svg
  xmlns="http://www.w3.org/2000/svg"
  width="40"
  height="40"
  viewBox="0 0 40 40"
>
  <g id="TV-btn" transform="translate(0 0.156)">
    <g
      id="Rectangle_1055"
      data-name="Rectangle 1055"
      transform="translate(0 -0.156)"
      stroke="#374151"
      stroke-width="2"
    >
      <rect width="40" height="40" rx="10" stroke="none" />
      <rect x="1" y="1" width="38" height="38" rx="9" fill="none" />
    </g>
    <g id="tv" transform="translate(9 10.701)">
      <path
        id="Tracé_91"
        data-name="Tracé 91"
        d="M122.177,412.162l-1.489,1.489a.645.645,0,1,0,.911.911l2.4-2.4h-1.823Z"
        transform="translate(-115.322 -396.153)"
        fill="#374151"
      />
      <path
        id="Tracé_92"
        data-name="Tracé 92"
        d="M310.037,412.161l2.4,2.4a.645.645,0,1,0,.911-.911l-1.489-1.489h-1.823Z"
        transform="translate(-296.715 -396.152)"
        fill="#374151"
      />
      <path
        id="Tracé_93"
        data-name="Tracé 93"
        d="M0,341.912V343a.645.645,0,0,0,.645.645H21.355A.645.645,0,0,0,22,343v-1.085Z"
        transform="translate(0 -328.922)"
        fill="#374151"
      />
      <path
        id="Tracé_94"
        data-name="Tracé 94"
        d="M22,51.289V40.233a.645.645,0,0,0-.645-.645H.645A.645.645,0,0,0,0,40.233V51.289Z"
        transform="translate(0 -39.588)"
        fill="#374151"
      />
    </g>
  </g>
</svg>
